<svg xmlns="http://www.w3.org/2000/svg" width="28.956" height="23.724" viewBox="0 0 28.956 23.724">
  <g id="fila_1_" data-name="fila(1)" transform="translate(0 -46.254)">
    <path id="Path_27" data-name="Path 27" d="M16.552,50.649V49.537a3.282,3.282,0,0,0-6.273-1.352,3.1,3.1,0,0,0-4.548,1.34,2.928,2.928,0,0,0-4.463,2.495v.951A2.913,2.913,0,0,0,1.834,54.7L0,55.369v8.28H.686v6.329H17.233V62.791h.8V53.554L15.8,52.737A3.267,3.267,0,0,0,16.552,50.649Zm-4.868-1.112a1.586,1.586,0,1,1,3.172,0v1.112a1.586,1.586,0,1,1-3.172,0Zm-5.9,6.111,2-.733H8.5v6.608H5.787Zm1.376-4.87a1.409,1.409,0,1,1,2.819,0v1.031a1.409,1.409,0,1,1-2.819,0Zm-4.2,1.241a1.233,1.233,0,1,1,2.466,0v.951a1.233,1.233,0,1,1-2.466,0v-.951ZM1.7,56.555,3.49,55.9h.6v6.053H1.7Zm.686,11.727V63.649H4.835v4.632Zm4.149,0V63.22H9.306v5.062Zm9,0H11V62.791h4.533Zm.8-7.188H10.2V54.741l2.216-.81h1.707l2.216.81Z"/>
    <path id="Path_28" data-name="Path 28" d="M357.249,56.805V46.254h-9.276V56.805h3.79V68.281h-2.942v1.7h7.58v-1.7H353.46V56.805Zm-7.58-8.854h5.883v7.158H349.67Z" transform="translate(-328.294)"/>
  </g>
</svg>
