<svg xmlns="http://www.w3.org/2000/svg" width="29.051" height="29.051" viewBox="0 0 29.051 29.051"><g transform="translate(-16 -16.002)"><path d="M18.411,43.833a2.426,2.426,0,0,0,2.1,1.22h4.511a1.453,1.453,0,0,0,1.433-1.691l-.041-.245h.9l.154.769A1.456,1.456,0,0,0,28.9,45.053h3.254a1.456,1.456,0,0,0,1.424-1.168l.154-.769h.9l-.041.245a1.453,1.453,0,0,0,1.433,1.691h4.511a2.426,2.426,0,0,0,2.1-1.22l1.149-2.011a4.343,4.343,0,0,0,1.262-3.063V24.233a4.363,4.363,0,0,0-4.358-4.358H34.855a4.357,4.357,0,0,0-8.66,0H20.358A4.363,4.363,0,0,0,16,24.233V38.758a4.343,4.343,0,0,0,1.262,3.063Zm7.091-.312a.484.484,0,0,1-.477.564H20.513a1.456,1.456,0,0,1-1.261-.732l-.261-.457a4.336,4.336,0,0,0,1.367.221h5.077Zm7.125.175a.486.486,0,0,1-.475.389H28.9a.486.486,0,0,1-.475-.389l-.116-.579h4.435Zm7.911.389H36.026a.484.484,0,0,1-.477-.564l.067-.4h5.077a4.339,4.339,0,0,0,1.367-.221l-.262.457a1.456,1.456,0,0,1-1.261.732ZM34.4,23.265v7.747a.485.485,0,0,1-.484.484H27.136a.485.485,0,0,1-.484-.484V23.265a.484.484,0,0,1,.223-.407l3.217,6.434a.484.484,0,0,0,.866,0l3.217-6.434A.484.484,0,0,1,34.4,23.265ZM30.525,16.97a3.393,3.393,0,0,1,3.389,3.389,3.637,3.637,0,0,1-.382,1.618l-3.007,6.015-3.007-6.015a3.637,3.637,0,0,1-.382-1.618A3.393,3.393,0,0,1,30.525,16.97ZM16.968,24.233a3.393,3.393,0,0,1,3.389-3.389h5.837a4.627,4.627,0,0,0,.269,1.134,1.454,1.454,0,0,0-.78,1.287v7.747a1.454,1.454,0,0,0,1.453,1.453h6.779a1.454,1.454,0,0,0,1.453-1.453V23.265a1.454,1.454,0,0,0-.78-1.287,4.627,4.627,0,0,0,.269-1.134h5.837a3.393,3.393,0,0,1,3.389,3.389V38.758a3.393,3.393,0,0,1-3.389,3.389H20.358a3.393,3.393,0,0,1-3.389-3.389Z"/><path d="M50.421,311.747h3.873a1.454,1.454,0,0,0,1.453-1.453v-4.842A1.454,1.454,0,0,0,54.294,304H49.453A1.454,1.454,0,0,0,48,305.453v3.873a2.424,2.424,0,0,0,2.421,2.421Zm-1.453-6.294a.485.485,0,0,1,.484-.484h4.842a.485.485,0,0,1,.484.484v4.842a.485.485,0,0,1-.484.484H50.421a1.454,1.454,0,0,1-1.453-1.453Z" transform="translate(-30.063 -270.568)"/><path d="M337.453,311.747h3.873a2.424,2.424,0,0,0,2.421-2.421v-3.873A1.454,1.454,0,0,0,342.294,304h-4.842A1.454,1.454,0,0,0,336,305.453v4.842A1.454,1.454,0,0,0,337.453,311.747Zm-.484-6.294a.485.485,0,0,1,.484-.484h4.842a.485.485,0,0,1,.484.484v3.873a1.454,1.454,0,0,1-1.453,1.453h-3.873a.485.485,0,0,1-.484-.484Z" transform="translate(-300.633 -270.568)"/><path d="M49.453,122.652h3.873a1.454,1.454,0,0,0,1.453-1.453v-7.747A1.454,1.454,0,0,0,53.326,112H50.421A2.424,2.424,0,0,0,48,114.421V121.2A1.454,1.454,0,0,0,49.453,122.652Zm-.484-8.231a1.454,1.454,0,0,1,1.453-1.453h2.905a.485.485,0,0,1,.484.484V121.2a.485.485,0,0,1-.484.484H49.453a.485.485,0,0,1-.484-.484Z" transform="translate(-30.063 -90.188)"/><path d="M353.453,122.652h3.873a1.454,1.454,0,0,0,1.453-1.453v-6.779A2.424,2.424,0,0,0,356.358,112h-2.905A1.454,1.454,0,0,0,352,113.453V121.2A1.454,1.454,0,0,0,353.453,122.652Zm-.484-9.2a.485.485,0,0,1,.484-.484h2.905a1.454,1.454,0,0,1,1.453,1.453V121.2a.485.485,0,0,1-.484.484h-3.873a.485.485,0,0,1-.484-.484Z" transform="translate(-315.664 -90.188)"/><path d="M193.453,311.747h4.842a1.454,1.454,0,0,0,1.453-1.453v-4.842A1.454,1.454,0,0,0,198.294,304h-4.842A1.454,1.454,0,0,0,192,305.453v4.842A1.454,1.454,0,0,0,193.453,311.747Zm-.484-6.294a.485.485,0,0,1,.484-.484h4.842a.485.485,0,0,1,.484.484v4.842a.485.485,0,0,1-.484.484h-4.842a.485.485,0,0,1-.484-.484Z" transform="translate(-165.348 -270.568)"/><path d="M218.421,52.842A2.421,2.421,0,1,0,216,50.421,2.421,2.421,0,0,0,218.421,52.842Zm0-3.873a1.453,1.453,0,1,1-1.453,1.453A1.453,1.453,0,0,1,218.421,48.968Z" transform="translate(-187.895 -30.061)"/></g></svg>